<?xml version="1.0" ?><!DOCTYPE svg  PUBLIC '-//W3C//DTD SVG 1.1//EN'  'http://www.w3.org/Graphics/SVG/1.1/DTD/svg11.dtd'><svg enable-background="new 0 0 48 48" height="48px" id="Layer_1" version="1.1" viewBox="0 0 48 48" width="48px" xml:space="preserve" xmlns="http://www.w3.org/2000/svg" xmlns:xlink="http://www.w3.org/1999/xlink"><g><path d="M24,0C10.745,0,0,10.745,0,24s10.745,24,24,24s24-10.745,24-24S37.255,0,24,0z M24.028,43.844   c-11.022,0-19.959-8.936-19.959-19.959c0-11.023,8.937-19.959,19.959-19.959c11.023,0,19.96,8.936,19.96,19.959   C43.988,34.908,35.052,43.844,24.028,43.844z" fill="#231F20"/><path d="M32.677,26.099c0.454-0.027,1.354-0.223,1.354-1.333v-1.578c0-1.181-1.166-1.28-1.472-1.286H15.297   c-1.22,0-1.323,0.941-1.328,1.21v1.809c0.006,0.247,0.108,1.178,1.328,1.178H32.677z" fill="#231F20"/></g></svg>