<?xml version="1.0" encoding="UTF-8" standalone="no"?>
<!-- Created with Inkscape (http://www.inkscape.org/) -->
<svg
   xmlns:dc="http://purl.org/dc/elements/1.1/"
   xmlns:cc="http://creativecommons.org/ns#"
   xmlns:rdf="http://www.w3.org/1999/02/22-rdf-syntax-ns#"
   xmlns:svg="http://www.w3.org/2000/svg"
   xmlns="http://www.w3.org/2000/svg"
   xmlns:sodipodi="http://sodipodi.sourceforge.net/DTD/sodipodi-0.dtd"
   xmlns:inkscape="http://www.inkscape.org/namespaces/inkscape"
   id="svg2383"
   sodipodi:version="0.32"
   inkscape:version="0.46"
   width="251.435"
   height="218.4375"
   xml:space="preserve"
   sodipodi:docname="vs-dataflow.svg"
   version="1.0"
   inkscape:output_extension="org.inkscape.output.svg.inkscape"><metadata
     id="metadata2388"><rdf:RDF><cc:Work
         rdf:about=""><dc:format>image/svg+xml</dc:format><dc:type
           rdf:resource="http://purl.org/dc/dcmitype/StillImage" /></cc:Work></rdf:RDF></metadata><defs
     id="defs2386"><inkscape:perspective
       sodipodi:type="inkscape:persp3d"
       inkscape:vp_x="0 : 526.18109 : 1"
       inkscape:vp_y="0 : 1000 : 0"
       inkscape:vp_z="744.09448 : 526.18109 : 1"
       inkscape:persp3d-origin="372.04724 : 350.78739 : 1"
       id="perspective2390" /></defs><sodipodi:namedview
     inkscape:window-height="667"
     inkscape:window-width="640"
     inkscape:pageshadow="2"
     inkscape:pageopacity="0.0"
     guidetolerance="10.0"
     gridtolerance="10.0"
     objecttolerance="10.0"
     borderopacity="1.0"
     bordercolor="#666666"
     pagecolor="#ffffff"
     id="base"
     showgrid="false"
     inkscape:zoom="0.43895487"
     inkscape:cx="332.00758"
     inkscape:cy="-20.503247"
     inkscape:window-x="154"
     inkscape:window-y="203"
     inkscape:current-layer="g2392" /><g
     id="g2392"
     inkscape:groupmode="layer"
     inkscape:label="vs-dataflow"
     transform="matrix(1.25,0,0,-1.25,-282.725,948.36875)"><g
       id="g2394"><g
         id="g2396" /><path
         d="M 259.676,734.203 L 381.953,734.203 L 381.953,758.203 L 259.676,758.203 L 259.676,734.203 z"
         style="fill:#ffffff;fill-opacity:1;fill-rule:evenodd;stroke:none"
         id="path2398" /><path
         d="M 259.676,734.32 L 381.836,734.32 L 381.836,758.32 L 259.676,758.32 L 259.676,734.32 z"
         style="fill:none;stroke:#000000;stroke-width:0.75;stroke-linecap:round;stroke-linejoin:miter;stroke-miterlimit:8;stroke-dasharray:none;stroke-opacity:1"
         id="path2400" /><g
         id="g2402"><text
           transform="matrix(1,0,0,-1,267.234,743.441)"
           id="text2404"><tspan
             style="font-size:12px;font-variant:normal;font-weight:normal;writing-mode:lr-tb;fill:#000000;fill-opacity:1;fill-rule:nonzero;stroke:none;font-family:Times;-inkscape-font-specification:Times-Roman"
             x="0 11.4 19.440001 28.079983 34.799984 41.519981 48.719982 56.759983 60.119968 62.999969 69.119972 75.119972 81.119972 89.75779"
             y="0"
             sodipodi:role="line"
             id="tspan2406">WRAPPER: xbow </tspan></text>
</g><path
         d="M 259.555,685.602 L 381.953,685.602 L 381.953,709.4809 L 259.555,709.4809 L 259.555,685.602 z"
         style="fill:#ffffff;fill-opacity:1;fill-rule:evenodd;stroke:none"
         id="path2408" /><path
         d="M 259.555,685.602 L 381.836,685.602 L 381.836,709.4809 L 259.555,709.4809 L 259.555,685.602 z"
         style="fill:none;stroke:#000000;stroke-width:0.75;stroke-linecap:round;stroke-linejoin:miter;stroke-miterlimit:8;stroke-dasharray:none;stroke-opacity:1"
         id="path2410" /><g
         id="g2412"><text
           transform="matrix(1,0,0,-1,267.234,694.723)"
           id="text2414"><tspan
             style="font-size:12px;font-variant:normal;font-weight:normal;writing-mode:lr-tb;fill:#000000;fill-opacity:1;fill-rule:nonzero;stroke:none;font-family:Times;-inkscape-font-specification:Times-Roman"
             x="0 6.7199998 15.359982 23.999996 32.039997 40.079975 47.399975 50.759995 53.759995 58.439995 64.439995 70.439995 74.399994 79.679993 84.959991 90.960938"
             y="0"
             sodipodi:role="line"
             id="tspan2416">SOURCE: source1 </tspan></text>
</g><path
         d="M 261.113,635.203 L 383.394,635.203 L 383.394,659.203 L 261.113,659.203 L 261.113,635.203 z"
         style="fill:#ffffff;fill-opacity:1;fill-rule:evenodd;stroke:none"
         id="path2418" /><path
         d="M 261.113,635.32 L 383.394,635.32 L 383.394,659.2028 L 261.113,659.2028 L 261.113,635.32 z"
         style="fill:none;stroke:#000000;stroke-width:0.75;stroke-linecap:round;stroke-linejoin:miter;stroke-miterlimit:8;stroke-dasharray:none;stroke-opacity:1"
         id="path2420" /><g
         id="g2422"><text
           transform="matrix(1,0,0,-1,268.793,644.32)"
           id="text2424"><tspan
             style="font-size:12px;font-variant:normal;font-weight:normal;writing-mode:lr-tb;fill:#000000;fill-opacity:1;fill-rule:nonzero;stroke:none;font-family:Times;-inkscape-font-specification:Times-Roman"
             x="0 6.7199998 14.04 22.079981 29.399981 38.039993 48.719994 52.079979 55.079979 59.760006 63.119991 67.079994 72.359993 77.639992 87.000008 93.000008"
             y="0"
             sodipodi:role="line"
             id="tspan2426">STREAM: stream1 </tspan></text>
</g><path
         d="M 226.555,584.203 L 426.953,584.203 L 426.953,608.203 L 226.555,608.203 L 226.555,584.203 z"
         style="fill:#ffffff;fill-opacity:1;fill-rule:evenodd;stroke:none"
         id="path2428" /><path
         d="M 226.555,584.32 L 426.953,584.32 L 426.953,608.2028 L 226.555,608.2028 L 226.555,584.32 z"
         style="fill:none;stroke:#000000;stroke-width:0.75;stroke-linecap:round;stroke-linejoin:miter;stroke-miterlimit:8;stroke-dasharray:none;stroke-opacity:1"
         id="path2430" /><g
         id="g2432"><text
           transform="matrix(1,0,0,-1,234.234,593.441)"
           id="text2434"><tspan
             style="font-size:12px;font-variant:normal;font-weight:normal;writing-mode:lr-tb;fill:#000000;fill-opacity:1;fill-rule:nonzero;stroke:none;font-family:Times;-inkscape-font-specification:Times-Roman"
             x="0 8.7600002 12.48 20.52 27.959999 36.600014 45.359989 52.55999 55.55999 62.279991 69.599991 78.239975 84.959976 93.599983 101.63997 104.99998 107.99998 114.11999 119.99998 125.99998 134.63997 140.63997 146.63997 151.91997 161.27998 167.28123"
             y="0"
             sodipodi:role="line"
             id="tspan2436">VIRTUAL SENSOR: xbow_demo </tspan></text>
</g><path
         d="M 314.035,732.762 L 314.633,714.523 L 314.516,714.281 L 314.273,714.16 L 314.035,714.281 L 313.914,714.523 L 313.313,732.641 L 313.313,733.004 L 313.676,733.121 L 313.914,733.004 L 314.035,732.762 z M 317.152,715.602 L 314.395,709.48 L 311.152,715.363"
         style="fill:#000000;fill-opacity:1;fill-rule:nonzero;stroke:none"
         id="path2438" /><path
         d="M 314.754,685.48 L 315.355,663.523 L 315.234,663.16 L 314.992,663.043 L 314.754,663.16 L 314.633,663.402 L 314.035,685.48 L 314.152,685.723 L 314.395,685.844 L 314.633,685.723 L 314.754,685.48 z M 317.992,664.602 L 315.113,658.48 L 311.992,664.363"
         style="fill:#000000;fill-opacity:1;fill-rule:nonzero;stroke:none"
         id="path2440" /><path
         d="M 317.035,635.32 L 317.035,613.961 L 316.914,613.723 L 316.676,613.602 L 316.434,613.723 L 316.313,613.961 L 316.313,635.32 L 316.434,635.563 L 316.676,635.684 L 316.914,635.563 L 317.035,635.32 z M 319.676,614.922 L 316.676,608.922 L 313.676,614.922"
         style="fill:#000000;fill-opacity:1;fill-rule:nonzero;stroke:none"
         id="path2442" /></g></g></svg>