<?xml version="1.0" encoding="UTF-8" standalone="no"?>
<!-- Created with Inkscape (http://www.inkscape.org/) -->
<svg
   xmlns:dc="http://purl.org/dc/elements/1.1/"
   xmlns:cc="http://creativecommons.org/ns#"
   xmlns:rdf="http://www.w3.org/1999/02/22-rdf-syntax-ns#"
   xmlns:svg="http://www.w3.org/2000/svg"
   xmlns="http://www.w3.org/2000/svg"
   xmlns:xlink="http://www.w3.org/1999/xlink"
   xmlns:sodipodi="http://sodipodi.sourceforge.net/DTD/sodipodi-0.dtd"
   xmlns:inkscape="http://www.inkscape.org/namespaces/inkscape"
   width="115.11321"
   height="46.009693"
   id="svg2"
   sodipodi:version="0.32"
   inkscape:version="0.46"
   sodipodi:docbase="c:\Documents and Settings\salehi\My Documents\workspace\NexTick\images"
   sodipodi:docname="login-icon.svg"
   inkscape:output_extension="org.inkscape.output.svg.inkscape"
   inkscape:export-filename="C:\Documents and Settings\Administrator\Desktop\new-design\Rails Machine_ Our Services_files\login.png"
   inkscape:export-xdpi="90"
   inkscape:export-ydpi="90"
   version="1.0">
  <defs
     id="defs4">
    <linearGradient
       inkscape:collect="always"
       id="linearGradient5493">
      <stop
         style="stop-color:#fefefe;stop-opacity:1;"
         offset="0"
         id="stop5495" />
      <stop
         style="stop-color:#fefefe;stop-opacity:0;"
         offset="1"
         id="stop5497" />
    </linearGradient>
    <linearGradient
       y2="461.6235"
       y1="461.6235"
       x2="-252.8316"
       x1="-254.83591"
       id="XMLID_6_"
       gradientUnits="userSpaceOnUse"
       gradientTransform="matrix(0,126.6817,126.6817,0,-58425.73,32328.262)">
      <stop
         style="stop-color:#DF9000"
         offset="0"
         id="stop54" />
      <stop
         style="stop-color:#9F7800"
         offset="1"
         id="stop56" />
    </linearGradient>
    <linearGradient
       y2="94.121902"
       y1="96.978996"
       x2="103.5597"
       x1="7.3916001"
       id="XMLID_5_"
       gradientUnits="userSpaceOnUse">
      <stop
         style="stop-color:#FFD53D"
         offset="0"
         id="stop29" />
      <stop
         style="stop-color:#FDD33A"
         offset="0.3017"
         id="stop31" />
      <stop
         style="stop-color:#F6CB30"
         offset="0.5348"
         id="stop33" />
      <stop
         style="stop-color:#EABE20"
         offset="0.7449"
         id="stop35" />
      <stop
         style="stop-color:#DAAC09"
         offset="0.9404"
         id="stop37" />
      <stop
         style="stop-color:#D4A500"
         offset="1"
         id="stop39" />
    </linearGradient>
    <linearGradient
       y2="461.6665"
       y1="461.6665"
       x2="-256.1553"
       x1="-258.10641"
       id="XMLID_4_"
       gradientUnits="userSpaceOnUse"
       gradientTransform="matrix(76.2002,76.2007,76.2007,-76.2002,-15540.281,54801.852)">
      <stop
         style="stop-color:#FFFFFF"
         offset="0"
         id="stop5081" />
      <stop
         style="stop-color:#000000"
         offset="1"
         id="stop5083" />
    </linearGradient>
    <inkscape:perspective
       sodipodi:type="inkscape:persp3d"
       inkscape:vp_x="0 : 526.18109 : 1"
       inkscape:vp_y="0 : 1000 : 0"
       inkscape:vp_z="744.09448 : 526.18109 : 1"
       inkscape:persp3d-origin="372.04724 : 350.78739 : 1"
       id="perspective3259" />
    <linearGradient
       id="linearGradient4618">
      <stop
         style="stop-color:#a30006;stop-opacity:1;"
         offset="0"
         id="stop4620" />
      <stop
         style="stop-color:#ff0751;stop-opacity:1;"
         offset="1"
         id="stop4622" />
    </linearGradient>
    <linearGradient
       y2="381.18069"
       x2="-1289.9851"
       y1="381.18069"
       x1="-1292.1372"
       gradientTransform="matrix(2.1657,10.4264,10.4264,-2.1657,-5554.7129,-6816.1445)"
       gradientUnits="userSpaceOnUse"
       id="linearGradient2176"
       xlink:href="#XMLID_2_"
       inkscape:collect="always" />
    <linearGradient
       gradientTransform="matrix(2.1657,10.4264,10.4264,-2.1657,-5508.144,-6816.1445)"
       gradientUnits="userSpaceOnUse"
       id="XMLID_2_"
       x1="-1292.1372"
       x2="-1289.9851"
       y1="381.18069"
       y2="381.18069">
      <stop
         id="stop12"
         offset="0"
         style="stop-color:#F4F4F4" />
      <stop
         id="stop14"
         offset="1"
         style="stop-color:#CDCDCD" />
    </linearGradient>
    <linearGradient
       y2="44"
       y1="42.42923"
       xlink:href="#linearGradient5742"
       x2="23.200001"
       x1="23.193102"
       inkscape:collect="always"
       id="linearGradient1345"
       gradientUnits="userSpaceOnUse"
       gradientTransform="matrix(31.25,0,0,31.25,-700,-1325)" />
    <linearGradient
       y2="43.710873"
       y1="42.767944"
       xlink:href="#linearGradient5756"
       x2="23.44058"
       x1="23.349695"
       inkscape:collect="always"
       id="linearGradient1342"
       gradientUnits="userSpaceOnUse"
       gradientTransform="matrix(33.82731,0,0,33.82731,-763.5122,-1439.594)" />
    <linearGradient
       y2="43.892632"
       y1="42.754631"
       xlink:href="#linearGradient9163"
       x2="23.20129"
       x1="23.21398"
       inkscape:collect="always"
       id="linearGradient1339"
       gradientUnits="userSpaceOnUse"
       gradientTransform="matrix(30.2835,0,0,30.2835,-680.9062,-1286.161)" />
    <linearGradient
       y2="42.883698"
       y1="44.066776"
       xlink:href="#linearGradient6506"
       x2="23.389874"
       x1="23.402565"
       inkscape:collect="always"
       id="linearGradient1336"
       gradientUnits="userSpaceOnUse"
       gradientTransform="matrix(24.16238,0,0,18.68556,-538.2464,-790.0391)" />
    <linearGradient
       y2="42.883698"
       y1="44.066776"
       xlink:href="#linearGradient6506"
       x2="23.389874"
       x1="23.402565"
       inkscape:collect="always"
       id="linearGradient9533"
       gradientUnits="userSpaceOnUse" />
    <linearGradient
       y2="43.892632"
       y1="42.754631"
       xlink:href="#linearGradient7464"
       x2="23.20129"
       x1="23.21398"
       inkscape:collect="always"
       id="linearGradient9531"
       gradientUnits="userSpaceOnUse" />
    <linearGradient
       y2="43.892632"
       y1="42.699776"
       xlink:href="#linearGradient5756"
       x2="23.662106"
       x1="22.93503"
       inkscape:collect="always"
       id="linearGradient9529"
       gradientUnits="userSpaceOnUse" />
    <linearGradient
       y2="44"
       y1="42.42923"
       xlink:href="#linearGradient5742"
       x2="23.200001"
       x1="23.193102"
       inkscape:collect="always"
       id="linearGradient9527"
       gradientUnits="userSpaceOnUse" />
    <linearGradient
       y2="44"
       y1="42.42923"
       xlink:href="#linearGradient5742"
       x2="23.200001"
       x1="23.193102"
       inkscape:collect="always"
       id="linearGradient7492"
       gradientUnits="userSpaceOnUse" />
    <linearGradient
       id="linearGradient5742">
      <stop
         style="stop-color:#adadad;stop-opacity:1.0000000;"
         offset="0.0000000"
         id="stop5744" />
      <stop
         style="stop-color:#f0f0f0;stop-opacity:1.0000000;"
         offset="1.0000000"
         id="stop5746" />
    </linearGradient>
    <linearGradient
       y2="43.892632"
       y1="42.699776"
       xlink:href="#linearGradient5756"
       x2="23.662106"
       x1="22.93503"
       inkscape:collect="always"
       id="linearGradient9321"
       gradientUnits="userSpaceOnUse" />
    <linearGradient
       id="linearGradient5756">
      <stop
         style="stop-color:#828282;stop-opacity:1.0000000;"
         offset="0.0000000"
         id="stop5758" />
      <stop
         style="stop-color:#929292;stop-opacity:0.35294119;"
         offset="1.0000000"
         id="stop5760" />
    </linearGradient>
    <linearGradient
       y2="43.892632"
       y1="42.754631"
       xlink:href="#linearGradient7464"
       x2="23.20129"
       x1="23.21398"
       inkscape:collect="always"
       id="linearGradient7496"
       gradientUnits="userSpaceOnUse" />
    <linearGradient
       id="linearGradient7464">
      <stop
         style="stop-color:#00039a;stop-opacity:1.0000000;"
         offset="0.0000000"
         id="stop7466" />
      <stop
         style="stop-color:#afa5ff;stop-opacity:1.0000000;"
         offset="1.0000000"
         id="stop7468" />
    </linearGradient>
    <linearGradient
       y2="42.883698"
       y1="44.066776"
       xlink:href="#linearGradient6506"
       x2="23.389874"
       x1="23.402565"
       inkscape:collect="always"
       id="linearGradient7498"
       gradientUnits="userSpaceOnUse" />
    <linearGradient
       id="linearGradient6506">
      <stop
         style="stop-color:#ffffff;stop-opacity:0.0000000;"
         offset="0.0000000"
         id="stop6508" />
      <stop
         style="stop-color:#ffffff;stop-opacity:0.87450981;"
         offset="1.0000000"
         id="stop6510" />
    </linearGradient>
    <linearGradient
       y2="44"
       y1="42.42923"
       xlink:href="#linearGradient5742"
       x2="23.200001"
       x1="23.193102"
       inkscape:collect="always"
       id="linearGradient9193"
       gradientUnits="userSpaceOnUse" />
    <linearGradient
       y2="43.710873"
       y1="42.767944"
       xlink:href="#linearGradient5756"
       x2="23.44058"
       x1="23.349695"
       inkscape:collect="always"
       id="linearGradient9195"
       gradientUnits="userSpaceOnUse" />
    <linearGradient
       y2="43.892632"
       y1="42.754631"
       xlink:href="#linearGradient9163"
       x2="23.20129"
       x1="23.21398"
       inkscape:collect="always"
       id="linearGradient9197"
       gradientUnits="userSpaceOnUse" />
    <linearGradient
       id="linearGradient9163">
      <stop
         style="stop-color:#000000;stop-opacity:1.0000000;"
         offset="0.0000000"
         id="stop9165" />
      <stop
         style="stop-color:#8c8c8c;stop-opacity:1.0000000;"
         offset="1.0000000"
         id="stop9167" />
    </linearGradient>
    <linearGradient
       y2="42.883698"
       y1="44.066776"
       xlink:href="#linearGradient6506"
       x2="23.389874"
       x1="23.402565"
       inkscape:collect="always"
       id="linearGradient9199"
       gradientUnits="userSpaceOnUse" />
    <linearGradient
       y2="41.599998"
       y1="39.991302"
       xlink:href="#linearGradient5742"
       x2="29.6"
       x1="29.6"
       inkscape:collect="always"
       id="linearGradient31654"
       gradientUnits="userSpaceOnUse"
       gradientTransform="matrix(0.5,0,0,1,1.2,-6.4)" />
    <linearGradient
       y2="44.65625"
       y1="43.337502"
       xlink:href="#linearGradient5756"
       x2="19.03125"
       x1="17.728125"
       inkscape:collect="always"
       id="linearGradient31570"
       gradientUnits="userSpaceOnUse" />
    <linearGradient
       y2="44.59375"
       y1="43.400002"
       xlink:href="#linearGradient9163"
       x2="18.390625"
       x1="18.390625"
       inkscape:collect="always"
       id="linearGradient31710"
       gradientUnits="userSpaceOnUse" />
    <linearGradient
       y2="46.774261"
       y1="47.917328"
       xlink:href="#linearGradient6506"
       x2="21.59375"
       x1="21.59375"
       inkscape:collect="always"
       id="linearGradient31649"
       gradientUnits="userSpaceOnUse"
       gradientTransform="matrix(0.388435,0,0,0.618097,7.6069,5.02633)" />
    <linearGradient
       id="linearGradient6688">
      <stop
         style="stop-color:#0f6900;stop-opacity:1.0000000;"
         offset="0.0000000"
         id="stop6690" />
      <stop
         style="stop-color:#a3ff87;stop-opacity:1.0000000;"
         offset="1.0000000"
         id="stop6692" />
    </linearGradient>
    <marker
       viewBox="0 0 10 10"
       refY="5"
       refX="10"
       orient="auto"
       markerWidth="4"
       markerUnits="strokeWidth"
       markerHeight="3"
       id="ArrowStart">
      <path
         id="path3430"
         d="M 10,0 L 0,5 L 10,10 L 10,0 z" />
    </marker>
    <marker
       viewBox="0 0 10 10"
       refY="5"
       refX="0"
       orient="auto"
       markerWidth="4"
       markerUnits="strokeWidth"
       markerHeight="3"
       id="ArrowEnd">
      <path
         id="path3427"
         d="M 0,0 L 10,5 L 0,10 L 0,0 z" />
    </marker>
    <inkscape:perspective
       id="perspective5073"
       inkscape:persp3d-origin="53.686501 : 46.166 : 1"
       inkscape:vp_z="107.373 : 69.249001 : 1"
       inkscape:vp_y="0 : 1000 : 0"
       inkscape:vp_x="0 : 69.249001 : 1"
       sodipodi:type="inkscape:persp3d" />
    <linearGradient
       inkscape:collect="always"
       xlink:href="#linearGradient6506"
       id="linearGradient5337"
       gradientUnits="userSpaceOnUse"
       gradientTransform="matrix(15.88505,0,0,45.856218,-122.60748,529.67754)"
       x1="21.59375"
       y1="47.917328"
       x2="21.59375"
       y2="46.774261" />
    <linearGradient
       inkscape:collect="always"
       xlink:href="#XMLID_4_"
       id="linearGradient5339"
       gradientUnits="userSpaceOnUse"
       gradientTransform="matrix(76.2002,76.2007,76.2007,-76.2002,-15540.281,54801.852)"
       x1="-258.10641"
       y1="461.6665"
       x2="-256.1553"
       y2="461.6665" />
    <linearGradient
       inkscape:collect="always"
       xlink:href="#XMLID_5_"
       id="linearGradient5341"
       gradientUnits="userSpaceOnUse"
       x1="7.3916001"
       y1="96.978996"
       x2="103.5597"
       y2="94.121902" />
    <linearGradient
       inkscape:collect="always"
       xlink:href="#XMLID_6_"
       id="linearGradient5343"
       gradientUnits="userSpaceOnUse"
       gradientTransform="matrix(0,126.6817,126.6817,0,-58425.73,32328.262)"
       x1="-254.83591"
       y1="461.6235"
       x2="-252.8316"
       y2="461.6235" />
    <linearGradient
       inkscape:collect="always"
       xlink:href="#linearGradient6506"
       id="linearGradient5407"
       gradientUnits="userSpaceOnUse"
       gradientTransform="matrix(15.88505,0,0,45.856218,-85.218946,513.21488)"
       x1="21.59375"
       y1="47.917328"
       x2="21.59375"
       y2="46.774261" />
    <linearGradient
       inkscape:collect="always"
       xlink:href="#XMLID_4_"
       id="linearGradient5409"
       gradientUnits="userSpaceOnUse"
       gradientTransform="matrix(76.2002,76.2007,76.2007,-76.2002,-15540.281,54801.852)"
       x1="-258.10641"
       y1="461.6665"
       x2="-256.1553"
       y2="461.6665" />
    <linearGradient
       inkscape:collect="always"
       xlink:href="#XMLID_5_"
       id="linearGradient5411"
       gradientUnits="userSpaceOnUse"
       x1="7.3916001"
       y1="96.978996"
       x2="103.5597"
       y2="94.121902" />
    <linearGradient
       inkscape:collect="always"
       xlink:href="#XMLID_6_"
       id="linearGradient5413"
       gradientUnits="userSpaceOnUse"
       gradientTransform="matrix(0,126.6817,126.6817,0,-58425.73,32328.262)"
       x1="-254.83591"
       y1="461.6235"
       x2="-252.8316"
       y2="461.6235" />
    <linearGradient
       inkscape:collect="always"
       xlink:href="#linearGradient6506"
       id="linearGradient5483"
       gradientUnits="userSpaceOnUse"
       gradientTransform="matrix(15.88505,0,0,45.856218,-121.64489,537.50106)"
       x1="21.59375"
       y1="47.917328"
       x2="21.59375"
       y2="46.774261" />
    <linearGradient
       inkscape:collect="always"
       xlink:href="#XMLID_4_"
       id="linearGradient5485"
       gradientUnits="userSpaceOnUse"
       gradientTransform="matrix(76.2002,76.2007,76.2007,-76.2002,-15540.281,54801.852)"
       x1="-258.10641"
       y1="461.6665"
       x2="-256.1553"
       y2="461.6665" />
    <linearGradient
       inkscape:collect="always"
       xlink:href="#XMLID_5_"
       id="linearGradient5487"
       gradientUnits="userSpaceOnUse"
       x1="7.3916001"
       y1="96.978996"
       x2="103.5597"
       y2="94.121902" />
    <linearGradient
       inkscape:collect="always"
       xlink:href="#XMLID_6_"
       id="linearGradient5489"
       gradientUnits="userSpaceOnUse"
       gradientTransform="matrix(0,126.6817,126.6817,0,-58425.73,32328.262)"
       x1="-254.83591"
       y1="461.6235"
       x2="-252.8316"
       y2="461.6235" />
    <linearGradient
       inkscape:collect="always"
       xlink:href="#linearGradient5493"
       id="linearGradient5499"
       x1="258.21432"
       y1="2861.595"
       x2="258.21432"
       y2="2917.3643"
       gradientUnits="userSpaceOnUse"
       gradientTransform="translate(-1.7638921,-214.51975)" />
    <linearGradient
       inkscape:collect="always"
       xlink:href="#linearGradient5493"
       id="linearGradient5501"
       gradientUnits="userSpaceOnUse"
       gradientTransform="translate(-1.6041457,-214.51975)"
       x1="258.21432"
       y1="2861.595"
       x2="258.21432"
       y2="2917.3643" />
    <linearGradient
       inkscape:collect="always"
       xlink:href="#linearGradient5493"
       id="linearGradient5507"
       gradientUnits="userSpaceOnUse"
       gradientTransform="translate(-1.6041457,-214.51975)"
       x1="258.21432"
       y1="2861.595"
       x2="258.21432"
       y2="2917.3643" />
  </defs>
  <sodipodi:namedview
     id="base"
     pagecolor="#ffffff"
     bordercolor="#666666"
     borderopacity="1.0"
     gridtolerance="10000"
     guidetolerance="10"
     objecttolerance="10"
     inkscape:pageopacity="0.0"
     inkscape:pageshadow="2"
     inkscape:zoom="3"
     inkscape:cx="112.1474"
     inkscape:cy="-46.217086"
     inkscape:document-units="px"
     inkscape:current-layer="g3294"
     showguides="true"
     inkscape:guide-bbox="true"
     inkscape:window-width="1400"
     inkscape:window-height="994"
     inkscape:window-x="0"
     inkscape:window-y="22"
     showborder="false"
     inkscape:showpageshadow="false"
     showgrid="false">
    <sodipodi:guide
       orientation="horizontal"
       position="913"
       id="guide4637" />
  </sodipodi:namedview>
  <metadata
     id="metadata7">
    <rdf:RDF>
      <cc:Work
         rdf:about="">
        <dc:format>image/svg+xml</dc:format>
        <dc:type
           rdf:resource="http://purl.org/dc/dcmitype/StillImage" />
      </cc:Work>
    </rdf:RDF>
  </metadata>
  <g
     inkscape:label="Layer 1"
     inkscape:groupmode="layer"
     id="layer1"
     transform="translate(-90.5434,-1188.9573)">
    <g
       id="g3294"
       inkscape:export-filename="C:\Documents and Settings\salehi\My Documents\workspace\NexTick\images\nextick-icon-big.png"
       inkscape:export-xdpi="90"
       inkscape:export-ydpi="90"
       transform="matrix(2.3335016,0,0,0.3980316,-372.71372,127.23337)">
      <rect
         style="opacity:1;fill:#3f3f3f;fill-opacity:1;stroke:#7a7a7a;stroke-width:1.24514067;stroke-miterlimit:4;stroke-dasharray:none;stroke-dashoffset:0.5;stroke-opacity:1"
         id="rect3281"
         width="0"
         height="17.765093"
         x="474.58066"
         y="2626.0852"
         rx="9.9613266"
         ry="17.765093" />
      <g
         id="g5503"
         transform="matrix(0.811776,0,0,0.7581348,45.639888,856.29853)"
         inkscape:export-filename="C:\Documents and Settings\Administrator\Desktop\new-design\Rails Machine_ Our Services_files\login.png"
         inkscape:export-xdpi="90"
         inkscape:export-ydpi="90">
        <path
           id="rect4606"
           d="M 242.63473,2647.0751 L 271.15704,2647.0751 C 275.02872,2647.0751 278.14563,2667.1506 278.14563,2692.0874 C 278.14563,2717.0242 275.02872,2737.0997 271.15704,2737.0997 L 242.63473,2737.0997 C 238.76306,2737.0997 235.64615,2717.0242 235.64615,2692.0874 C 235.64615,2667.1506 238.76306,2647.0751 242.63473,2647.0751 z"
           style="fill:#6a6a6a;fill-opacity:0.77272728;stroke-width:4.8670001;stroke-linecap:round;stroke-linejoin:round;stroke-miterlimit:4" />
        <path
           sodipodi:nodetypes="ccccccc"
           id="path5415"
           d="M 242.5688,2647.0751 C 239.30882,2647.0751 236.58554,2661.3726 235.8059,2680.7564 C 237.62687,2688.2411 241.21436,2694.967 244.34992,2694.967 L 269.67399,2694.967 C 273.52865,2694.967 276.7138,2684.0804 277.4145,2673.1408 C 276.30589,2657.7554 273.90942,2647.0751 271.09353,2647.0751 L 242.5688,2647.0751 z"
           style="fill:url(#linearGradient5507);fill-opacity:1;stroke-width:4.8670001;stroke-linecap:round;stroke-linejoin:round;stroke-miterlimit:4" />
      </g>
      <g
         id="g3"
         transform="matrix(4.9766651e-2,0,0,0.3367076,261.61353,2871.9905)"
         inkscape:export-filename="C:\Documents and Settings\Administrator\Desktop\new-design\Rails Machine_ Our Services_files\login.png"
         inkscape:export-xdpi="90"
         inkscape:export-ydpi="90">
        <path
           style="fill:#ffe600"
           id="path5"
           d="M 54.757,61.18 C 54.757,60.118 53.314,60.164 52.607,60.39 C 52.509,61.603 53.85,61.348 52.591,63.153 C 53.692,62.862 54.415,62.203 54.757,61.18" />
        <path
           style="fill:#e5e5e5"
           id="path7"
           d="M 33.463,37.514 C 33.463,30.253 34.99,21.211 42.352,17.816 C 47.213,15.576 55.37,15.753 60.591,16.788 C 75.423,19.724 73.063,38.809 73.063,50.163 C 73.063,55.264 71.619,56.565 76.777,56.565 C 77.996,56.565 90.862,56.711 90.862,56.426 C 90.862,46.258 92.384,34.754 90.106,24.764 C 82.58,-8.254 23.994,-8.254 16.466,24.764 C 14.189,34.754 15.711,46.258 15.711,56.426 C 15.711,56.713 27.326,56.565 28.39,56.565 C 34.583,56.565 33.463,56.358 33.463,50.163 C 33.463,45.946 33.463,41.729 33.463,37.514" />
        <path
           style="fill:#c6c6c6"
           id="path9"
           d="M 71.7,19.941 C 67.351,13.512 62.614,13.535 55.393,14.115 C 48.291,14.687 39.591,14.847 35.603,21.825 C 32.551,27.164 31.844,33.184 31.307,39.157 C 31.018,42.355 30.752,45.578 30.198,48.742 C 29.492,52.747 26.741,52.374 24.235,54.553 C 27.497,54.576 30.76,54.599 34.022,54.623 C 34.022,47.103 33.56,39.439 34.105,31.935 C 35.117,18.052 47.421,14.715 59.363,16.44 C 73.094,18.422 73.325,31.033 73.325,42.075 C 73.325,46.204 73.325,50.332 73.325,54.459 C 73.325,55.116 81.53,59.015 81.53,54.037 C 75.231,54.128 75.087,44.139 75.103,39.883 C 75.133,32.24 76.124,26.969 71.7,19.941" />
        <linearGradient
           y2="461.6665"
           y1="461.6665"
           x2="-256.1553"
           x1="-258.10641"
           id="linearGradient5128"
           gradientUnits="userSpaceOnUse"
           gradientTransform="matrix(76.2002,76.2007,76.2007,-76.2002,-15540.281,54801.852)">
          <stop
             style="stop-color:#FFFFFF"
             offset="0"
             id="stop5130" />
          <stop
             style="stop-color:#000000"
             offset="1"
             id="stop5132" />
        </linearGradient>
        <path
           style="fill:url(#linearGradient5409)"
           id="path16"
           d="M 47.417,0.296 C 30.026,0.296 15.702,14.495 15.702,31.871 C 15.702,35.83 13.98,56.782 17.232,56.782 C 22.669,56.782 28.106,56.782 33.542,56.782 C 35.095,56.782 34.251,45.642 34.251,43.905 C 34.251,31.155 35.022,16.661 51.157,16.661 C 57.077,16.661 63.453,16.1 67.957,20.755 C 72.825,25.784 73.056,33.259 73.056,39.835 C 73.056,45.264 73.056,50.691 73.056,56.118 C 73.056,57.571 84.601,56.783 86.335,56.783 C 91.384,56.783 91.648,57.767 91.648,52.812 C 91.648,46.614 91.648,40.418 91.648,34.22 C 91.648,18.445 82.781,4.385 66.588,0.985 C 60.404,-0.315 53.698,0.296 47.417,0.296 M 16.495,31.37 C 16.495,-4.08 74.117,-10.628 87.976,18.575 C 92.985,29.129 90.854,43.285 90.854,54.634 C 90.854,57.655 82.488,56.089 79.939,56.089 C 72.813,56.089 73.85,55.998 73.85,48.914 C 73.85,36.897 75.564,17.584 59.217,16.054 C 54.119,15.578 47.301,15.204 42.592,17.372 C 35.013,20.857 33.452,30.099 33.452,37.568 C 33.452,42.779 33.452,47.993 33.452,53.206 C 33.452,58.373 27.023,56.089 22.57,56.089 C 16.737,56.089 16.494,57.068 16.494,51.289 C 16.494,45.057 16.494,38.824 16.494,32.591 C 16.495,32.185 16.495,31.776 16.495,31.37" />
        <path
           style="fill:#c6c6c6"
           id="path18"
           d="M 74.351,8.301 C 76.601,15.993 63.03,7.712 59.437,7.291 C 53.709,6.621 47.629,8.15 42.192,9.821 C 39.407,10.675 34.977,13.173 31.963,12.522 C 29.88,12.071 31.618,8.898 32.46,8.093 C 35.756,4.937 41.029,3.704 45.389,3.134 C 50.449,2.471 72.201,0.941 74.351,8.301" />
        <path
           style="fill:#ffffff"
           id="path20"
           d="M 19.794,29.649 C 18.986,34.718 19.295,40.226 19.606,45.323 C 19.683,46.611 21.613,54.243 22.862,49.213 C 24.059,44.389 22.945,38.697 22.555,33.825 C 22.419,32.091 24.017,18.853 24.987,19.316 C 22.352,18.063 19.984,28.451 19.794,29.649" />
        <path
           style="fill:#ffffff"
           id="path22"
           d="M 71.133,16.734 C 72.889,18.387 74.89,20.539 75.679,22.876 C 76.583,25.548 74.257,26.426 72.825,24.206 C 71.182,21.655 70.157,18.36 67.723,16.414 C 67.115,15.927 61.874,13.391 62.008,12.626 C 62.435,10.227 70.637,16.267 71.133,16.734" />
        <path
           style="fill:#ffffff"
           id="path24"
           d="M 57.991,3.386 C 57.324,4.835 54.518,4.407 53.304,4.492 C 48.746,4.81 44.244,5.949 40.271,8.241 C 38.62,9.193 29.536,17.86 27.741,16.437 C 22.069,11.93 34.779,5.38 37.169,4.55 C 38.543,4.072 59.081,1.024 57.991,3.386" />
        <path
           style="fill:#ffffff"
           id="path26"
           d="M 84.633,15.285 C 86.487,18.471 93.097,33.283 87.948,36.032 C 85.768,37.195 84.108,23.522 83.515,21.899 C 82.081,17.972 80.217,15.213 76.546,13.109 C 74.7,12.051 70.191,11.059 69.19,8.992 C 67.635,5.777 74.679,6.223 75.962,6.844 C 79.499,8.559 82.671,11.913 84.633,15.285" />
        <linearGradient
           y2="94.121902"
           y1="96.978996"
           x2="103.5597"
           x1="7.3916001"
           id="linearGradient5140"
           gradientUnits="userSpaceOnUse">
          <stop
             style="stop-color:#FFD53D"
             offset="0"
             id="stop5142" />
          <stop
             style="stop-color:#FDD33A"
             offset="0.3017"
             id="stop5144" />
          <stop
             style="stop-color:#F6CB30"
             offset="0.5348"
             id="stop5146" />
          <stop
             style="stop-color:#EABE20"
             offset="0.7449"
             id="stop5148" />
          <stop
             style="stop-color:#DAAC09"
             offset="0.9404"
             id="stop5150" />
          <stop
             style="stop-color:#D4A500"
             offset="1"
             id="stop5152" />
        </linearGradient>
        <path
           style="fill:url(#linearGradient5411)"
           id="path41"
           d="M 106.442,119.543 C 106.442,135.106 89.639,136.998 77.615,136.998 C 65.643,136.998 53.669,136.998 41.698,136.998 C 31.566,136.998 19.461,138.411 10.099,134.009 C -1.319,128.639 0.905,115.671 0.905,105.244 C 0.905,94.79 0.491,84.24 1,73.79 C 1.654,60.305 7.923,54.44 21.005,54.44 C 43.169,54.44 65.335,54.44 87.5,54.44 C 104.127,54.44 106.442,66.529 106.442,80.808 C 106.442,93.72 106.442,106.632 106.442,119.543" />
        <path
           style="fill:#ffe45c"
           id="path43"
           d="M 94.229,106.979 C 98.204,107.177 95.52,112.326 94.341,113.97 C 89.985,120.063 82.706,123.988 75.807,126.435 C 63.633,130.752 50.203,130.972 37.541,129.045 C 30.485,127.973 13.464,125.539 10.821,117.014 C 7.722,107.013 26.115,112.623 29.327,113.673 C 41.953,117.808 53.679,120.232 67.046,118.789 C 73.942,118.043 81.075,116.373 86.546,111.877 C 88.803,110.025 90.975,106.813 94.229,106.979" />
        <path
           style="fill:#c79c00"
           id="path45"
           d="M 100.259,88.635 C 100.259,92.518 101.137,101.746 97.374,104.619 C 95.192,106.283 93.445,103.36 92.894,101.605 C 88.685,88.222 96.09,73.628 82.423,63.918 C 80.743,62.724 77.008,61.627 75.92,59.828 C 74.837,58.04 81.745,57.583 82.451,57.651 C 96.74,58.992 100.259,77.244 100.259,88.635" />
        <path
           style="fill:#ffe45c"
           id="path47"
           d="M 11.523,72.528 C 9.889,80.405 9.367,89.54 12.507,97.13 C 14.745,102.541 22.363,108.863 28.211,104.159 C 36.52,97.478 29.567,77.136 42.055,74.304 C 48.87,72.759 56.587,73.371 62.451,68.82 C 66.184,65.921 64.246,62.638 60.568,60.945 C 47.993,55.157 15.237,54.652 11.523,72.528" />
        <path
           style="fill:#ffc800"
           id="path49"
           d="M 9.031,127.001 C 9.031,114.374 9.031,101.747 9.031,89.12 C 9.031,75.702 8.187,57.157 26.247,57.157 C 50.751,57.157 75.254,57.157 99.758,57.157 C 95.085,53.812 88.915,54.44 83.457,54.44 C 75.674,54.44 67.889,54.44 60.103,54.44 C 45.991,54.44 31.879,54.44 17.767,54.44 C -1.516,54.44 0.905,75.471 0.905,89.28 C 0.905,102.066 -4.133,127.493 10.307,134.103 C 9.403,131.85 9.031,129.42 9.031,127.001" />
        <path
           style="fill:#ffb600"
           id="path51"
           d="M 89.772,54.44 C 69.194,54.44 48.618,54.44 28.039,54.44 C 19.749,54.44 8.45,52.739 3.766,61.351 C -1.073,70.247 0.905,84.025 0.905,93.911 C 0.905,103.342 -1.378,116.234 1.828,125.361 C 6.111,137.55 21.911,136.999 32.563,136.999 C 45.016,136.999 57.468,136.999 69.921,136.999 C 80.291,136.999 93.497,138.564 101.714,131.087 C 110.485,123.106 106.442,101.198 106.442,90.782 C 106.442,77.067 109.279,54.44 89.772,54.44 M 103.204,110.74 C 103.204,138.747 61.782,131.766 43.397,131.766 C 33.918,131.766 22.291,133.219 13.458,129.256 C 1.261,123.784 3.144,109.362 3.144,98.3 C 3.144,88.153 1.329,75.328 4.456,65.48 C 8.113,53.963 20.447,55.25 30.155,55.25 C 42.938,55.25 55.718,55.25 68.502,55.25 C 77.326,55.25 90.209,53.389 97.449,59.169 C 104.226,64.579 102.735,75.164 102.837,82.928 C 102.96,92.198 103.082,101.469 103.204,110.74" />
        <linearGradient
           y2="461.6235"
           y1="461.6235"
           x2="-252.8316"
           x1="-254.83591"
           id="linearGradient5160"
           gradientUnits="userSpaceOnUse"
           gradientTransform="matrix(0,126.6817,126.6817,0,-58425.73,32328.262)">
          <stop
             style="stop-color:#DF9000"
             offset="0"
             id="stop5162" />
          <stop
             style="stop-color:#9F7800"
             offset="1"
             id="stop5164" />
        </linearGradient>
        <path
           style="fill:url(#linearGradient5413)"
           id="path58"
           d="M 17.332,53.535 C 0.918,53.535 0,69.008 0,81.737 C 0,93.414 0,105.09 0,116.766 C 0,143.53 34.278,137.905 52.85,137.905 C 70.763,137.905 107.347,143.927 107.347,117.577 C 107.347,105.978 107.347,94.375 107.347,82.775 C 107.347,71.875 107.871,56.437 94.22,53.915 C 81.843,51.627 67.691,53.535 55.197,53.535 C 42.575,53.535 29.953,53.535 17.332,53.535 M 1.811,119.543 C 1.811,109.456 1.811,99.368 1.811,89.28 C 1.811,79.884 -0.63,64.547 7.564,58.114 C 13.382,53.548 24.959,55.345 31.885,55.345 C 44.92,55.345 57.956,55.345 70.991,55.345 C 78.532,55.345 88.094,53.902 95.483,56.079 C 107.32,59.568 105.537,75.345 105.537,85.14 C 105.537,96.362 105.537,107.584 105.537,118.808 C 105.537,133.25 91.356,136.092 79.579,136.092 C 65.527,136.092 51.476,136.092 37.426,136.092 C 24.562,136.093 1.811,137.777 1.811,119.543" />
      </g>
      <text
         xml:space="preserve"
         style="font-size:19.04104614px;font-style:normal;font-variant:normal;font-weight:normal;font-stretch:normal;text-align:start;line-height:100%;writing-mode:lr-tb;text-anchor:start;fill:#3a3a3a;fill-opacity:1;stroke:none;stroke-width:1px;stroke-linecap:butt;stroke-linejoin:miter;stroke-opacity:1;font-family:Times New Roman;-inkscape-font-specification:Times New Roman"
         x="623.26624"
         y="1129.3314"
         id="text5175"
         sodipodi:linespacing="100%"
         transform="scale(0.3880951,2.5766882)"
         inkscape:export-filename="C:\Documents and Settings\Administrator\Desktop\new-design\Rails Machine_ Our Services_files\login.png"
         inkscape:export-xdpi="90"
         inkscape:export-ydpi="90"><tspan
           sodipodi:role="line"
           id="tspan5177"
           x="623.26624"
           y="1129.3314"
           style="font-size:17.85098076px;fill:#3a3a3a;fill-opacity:1">Login</tspan></text>
    </g>
  </g>
</svg>
