<?xml version="1.0" encoding="UTF-8" standalone="no"?>
<!-- Created with Inkscape (http://www.inkscape.org/) -->
<svg
   xmlns:dc="http://purl.org/dc/elements/1.1/"
   xmlns:cc="http://creativecommons.org/ns#"
   xmlns:rdf="http://www.w3.org/1999/02/22-rdf-syntax-ns#"
   xmlns:svg="http://www.w3.org/2000/svg"
   xmlns="http://www.w3.org/2000/svg"
   xmlns:sodipodi="http://sodipodi.sourceforge.net/DTD/sodipodi-0.dtd"
   xmlns:inkscape="http://www.inkscape.org/namespaces/inkscape"
   width="744.09448819"
   height="1052.3622047"
   id="svg2"
   sodipodi:version="0.32"
   inkscape:version="0.46"
   sodipodi:docname="safestorage.svg"
   inkscape:output_extension="org.inkscape.output.svg.inkscape">
  <defs
     id="defs4">
    <inkscape:perspective
       sodipodi:type="inkscape:persp3d"
       inkscape:vp_x="0 : 526.18109 : 1"
       inkscape:vp_y="0 : 1000 : 0"
       inkscape:vp_z="744.09448 : 526.18109 : 1"
       inkscape:persp3d-origin="372.04724 : 350.78739 : 1"
       id="perspective10" />
  </defs>
  <sodipodi:namedview
     id="base"
     pagecolor="#ffffff"
     bordercolor="#666666"
     borderopacity="1.0"
     gridtolerance="10000"
     guidetolerance="10"
     objecttolerance="10"
     inkscape:pageopacity="0.0"
     inkscape:pageshadow="2"
     inkscape:zoom="0.98994949"
     inkscape:cx="196.203"
     inkscape:cy="520"
     inkscape:document-units="px"
     inkscape:current-layer="layer1"
     showgrid="false"
     inkscape:window-width="1599"
     inkscape:window-height="1125"
     inkscape:window-x="0"
     inkscape:window-y="25" />
  <metadata
     id="metadata7">
    <rdf:RDF>
      <cc:Work
         rdf:about="">
        <dc:format>image/svg+xml</dc:format>
        <dc:type
           rdf:resource="http://purl.org/dc/dcmitype/StillImage" />
      </cc:Work>
    </rdf:RDF>
  </metadata>
  <g
     inkscape:label="Layer 1"
     inkscape:groupmode="layer"
     id="layer1">
    <path
       sodipodi:type="arc"
       style="fill:#ffffff;fill-opacity:1;fill-rule:evenodd;stroke:#000000;stroke-width:1px;stroke-linecap:butt;stroke-linejoin:miter;stroke-opacity:1"
       id="path2437"
       sodipodi:cx="31.31473"
       sodipodi:cy="318.99142"
       sodipodi:rx="53.538086"
       sodipodi:ry="51.51778"
       d="M 84.852816,318.99142 A 53.538086,51.51778 0 1 1 -22.223356,318.99142 A 53.538086,51.51778 0 1 1 84.852816,318.99142 z"
       transform="translate(105.05587,175.76654)" />
    <text
       xml:space="preserve"
       style="font-size:40px;font-style:normal;font-weight:normal;line-height:125%;fill:#000000;fill-opacity:1;stroke:none;stroke-width:1px;stroke-linecap:butt;stroke-linejoin:miter;stroke-opacity:1;font-family:Bitstream Vera Sans"
       x="118.63946"
       y="436.40231"
       id="text3217"
       sodipodi:linespacing="125%"><tspan
         sodipodi:role="line"
         id="tspan3219"
         x="118.63946"
         y="436.40231"
         style="font-size:12px;font-style:normal;font-variant:normal;font-weight:bold;font-stretch:normal;text-align:start;line-height:125%;writing-mode:lr-tb;text-anchor:start;font-family:Bitstream Vera Sans;-inkscape-font-specification:Bitstream Vera Sans Bold">GSN</tspan></text>
    <path
       sodipodi:type="arc"
       style="fill:#ffffff;fill-opacity:1;fill-rule:evenodd;stroke:#000000;stroke-width:1px;stroke-linecap:butt;stroke-linejoin:miter;stroke-opacity:1"
       id="path3223"
       sodipodi:cx="31.31473"
       sodipodi:cy="318.99142"
       sodipodi:rx="53.538086"
       sodipodi:ry="51.51778"
       d="M 84.852816,318.99142 A 53.538086,51.51778 0 1 1 -22.223356,318.99142 A 53.538086,51.51778 0 1 1 84.852816,318.99142 z"
       transform="translate(482.85291,173.74625)" />
    <text
       xml:space="preserve"
       style="font-size:40px;font-style:normal;font-weight:normal;line-height:125%;fill:#000000;fill-opacity:1;stroke:none;stroke-width:1px;stroke-linecap:butt;stroke-linejoin:miter;stroke-opacity:1;font-family:Bitstream Vera Sans"
       x="468.15225"
       y="434.38202"
       id="text3225"
       sodipodi:linespacing="125%"><tspan
         sodipodi:role="line"
         id="tspan3227"
         x="468.15225"
         y="434.38202"
         style="font-size:12px;font-style:normal;font-variant:normal;font-weight:bold;font-stretch:normal;text-align:start;line-height:125%;writing-mode:lr-tb;text-anchor:start;font-family:Bitstream Vera Sans;-inkscape-font-specification:Bitstream Vera Sans Bold">Safe Storage</tspan></text>
    <path
       style="fill:none;fill-rule:evenodd;stroke:#000000;stroke-width:1px;stroke-linecap:butt;stroke-linejoin:miter;stroke-opacity:1;display:inline"
       d="M 189.90868,495.76813 L 457.5991,496.77828"
       id="path3229"
       inkscape:connector-type="polyline" />
    <g
       id="g2522"
       transform="matrix(5.4010912,0,0,8.473142,434.08226,324.83169)">
      <path
         id="path90"
         d="M 12.9855,27.1496 L 12.9798,27.0771 L 12.964,27.0059 L 12.9369,26.9346 L 12.8995,26.8645 L 12.8531,26.7943 L 12.7954,26.7253 L 12.7276,26.6574 L 12.6495,26.5907 L 12.5613,26.5251 L 12.464,26.4629 L 12.3576,26.4006 L 12.2434,26.3396 L 12.1178,26.2819 L 11.9854,26.2264 L 11.8452,26.1733 L 11.6958,26.1223 L 11.5409,26.0748 L 11.3779,26.0296 L 11.2094,25.9877 L 11.0329,25.9481 L 10.853,25.9108 L 10.6664,25.878 L 10.4752,25.8463 L 10.2817,25.8203 L 10.0826,25.7977 L 9.88013,25.7784 L 9.6765,25.7615 L 9.46948,25.7502 L 9.26132,25.74 L 9.05204,25.7332 L 8.84275,25.7332 L 8.84275,25.7332 L 8.63233,25.7332 L 8.42304,25.74 L 8.21489,25.7502 L 8.00786,25.7615 L 7.80423,25.7784 L 7.60173,25.7977 L 7.40376,25.8203 L 7.20918,25.8463 L 7.01799,25.878 L 6.83133,25.9108 L 6.65146,25.9481 L 6.47611,25.9877 L 6.30755,26.0296 L 6.14465,26.0748 L 5.98853,26.1223 L 5.8392,26.1733 L 5.70005,26.2264 L 5.56656,26.2819 L 5.44212,26.3396 L 5.32673,26.4006 L 5.22039,26.4629 L 5.1231,26.5251 L 5.03486,26.5907 L 4.9568,26.6574 L 4.88892,26.7253 L 4.83123,26.7943 L 4.78485,26.8645 L 4.74751,26.9346 L 4.72036,27.0059 L 4.70566,27.0771 L 4.7,27.1496 L 4.7,27.1496 L 4.70566,27.222 L 4.72036,27.2921 L 4.74751,27.3645 L 4.78485,27.4346 L 4.83123,27.5048 L 4.88892,27.5738 L 4.9568,27.6417 L 5.03486,27.7084 L 5.1231,27.7729 L 5.22039,27.8362 L 5.32673,27.8985 L 5.44212,27.9595 L 5.56656,28.0172 L 5.70005,28.0727 L 5.8392,28.1258 L 5.98853,28.1768 L 6.14465,28.2243 L 6.30755,28.2695 L 6.47611,28.3114 L 6.65146,28.351 L 6.83133,28.3883 L 7.01799,28.4211 L 7.20918,28.4517 L 7.40376,28.4788 L 7.60173,28.5014 L 7.80423,28.5207 L 8.00786,28.5365 L 8.21489,28.5489 L 8.42304,28.558 L 8.63233,28.5648 L 8.84275,28.5659 L 8.84275,28.5659 L 9.05204,28.5648 L 9.26132,28.558 L 9.46948,28.5489 L 9.6765,28.5365 L 9.88013,28.5207 L 10.0826,28.5014 L 10.2817,28.4788 L 10.4752,28.4517 L 10.6664,28.4211 L 10.853,28.3883 L 11.0329,28.351 L 11.2094,28.3114 L 11.3779,28.2695 L 11.5409,28.2243 L 11.6958,28.1768 L 11.8452,28.1258 L 11.9854,28.0727 L 12.1178,28.0172 L 12.2434,27.9595 L 12.3576,27.8985 L 12.464,27.8362 L 12.5613,27.7729 L 12.6495,27.7084 L 12.7276,27.6417 L 12.7954,27.5738 L 12.8531,27.5048 L 12.8995,27.4346 L 12.9369,27.3645 L 12.964,27.2921 L 12.9798,27.222 L 12.9855,27.1496 z"
         style="fill:#a5a585" />
      <path
         id="path92"
         d="M 12.9369,27.1269 L 12.9312,27.0545 L 12.9165,26.9855 L 12.8905,26.9154 L 12.8543,26.8464 L 12.8056,26.7762 L 12.7468,26.7095 L 12.6823,26.6416 L 12.6031,26.5783 L 12.516,26.5138 L 12.4199,26.4504 L 12.3135,26.3905 L 12.1993,26.3305 L 12.0759,26.2739 L 11.9459,26.2174 L 11.8033,26.1665 L 11.6551,26.1167 L 11.5001,26.0692 L 11.3395,26.0251 L 11.1721,25.9843 L 10.9978,25.9447 L 10.8168,25.9097 L 10.6324,25.8769 L 10.4424,25.8463 L 10.2501,25.8203 L 10.0532,25.7977 L 9.85072,25.7796 L 9.64822,25.7615 L 9.44233,25.7513 L 9.23644,25.7422 L 9.02602,25.7366 L 8.81786,25.7332 L 8.81786,25.7332 L 8.60971,25.7366 L 8.40155,25.7422 L 8.19339,25.7513 L 7.98976,25.7615 L 7.78613,25.7796 L 7.58477,25.7977 L 7.38679,25.8203 L 7.19334,25.8463 L 7.00442,25.8769 L 6.82002,25.9097 L 6.63901,25.9447 L 6.4648,25.9843 L 6.2985,26.0251 L 6.1356,26.0692 L 5.97948,26.1167 L 5.83241,26.1665 L 5.69213,26.2174 L 5.56204,26.2739 L 5.43759,26.3305 L 5.3222,26.3905 L 5.21813,26.4504 L 5.12197,26.5138 L 5.0326,26.5783 L 4.95567,26.6416 L 4.88892,26.7095 L 4.83123,26.7762 L 4.78371,26.8464 L 4.74638,26.9154 L 4.72036,26.9855 L 4.70566,27.0545 L 4.7,27.1269 L 4.7,27.1269 L 4.70566,27.1971 L 4.72036,27.2661 L 4.74638,27.3373 L 4.78371,27.4064 L 4.83123,27.4754 L 4.88892,27.5432 L 4.95567,27.61 L 5.0326,27.6745 L 5.12197,27.7378 L 5.21813,27.8023 L 5.3222,27.8634 L 5.43759,27.9211 L 5.56204,27.9788 L 5.69213,28.0342 L 5.83241,28.0863 L 5.97948,28.136 L 6.1356,28.1824 L 6.2985,28.2277 L 6.4648,28.2684 L 6.63901,28.308 L 6.82002,28.3442 L 7.00442,28.3759 L 7.19334,28.4053 L 7.38679,28.4313 L 7.58477,28.4539 L 7.78613,28.4731 L 7.98976,28.4901 L 8.19339,28.5014 L 8.40155,28.5105 L 8.60971,28.5161 L 8.81786,28.5184 L 8.81786,28.5184 L 9.02602,28.5161 L 9.23644,28.5105 L 9.44233,28.5014 L 9.64822,28.4901 L 9.85072,28.4731 L 10.0532,28.4539 L 10.2501,28.4313 L 10.4424,28.4053 L 10.6324,28.3759 L 10.8168,28.3442 L 10.9978,28.308 L 11.1721,28.2684 L 11.3395,28.2277 L 11.5001,28.1824 L 11.6551,28.136 L 11.8033,28.0863 L 11.9459,28.0342 L 12.0759,27.9788 L 12.1993,27.9211 L 12.3135,27.8634 L 12.4199,27.8023 L 12.516,27.7378 L 12.6031,27.6745 L 12.6823,27.61 L 12.7468,27.5432 L 12.8056,27.4754 L 12.8543,27.4064 L 12.8905,27.3373 L 12.9165,27.2661 L 12.9312,27.1971 L 12.9369,27.1269"
         style="fill:none;fill-opacity:0;stroke:#494936;stroke-width:0.001" />
      <path
         id="path94"
         d="M 4.7,24.1913 L 4.7,27.1744 L 12.9369,27.1744 L 12.9369,24.1913 L 4.7,24.1913 z"
         style="fill:#a5a585" />
      <path
         id="path96"
         d="M 12.9855,24.1664 L 12.9798,24.0928 L 12.964,24.0216 L 12.9369,23.9514 L 12.8995,23.8813 L 12.8531,23.81 L 12.7954,23.741 L 12.7276,23.672 L 12.6495,23.6075 L 12.5613,23.543 L 12.464,23.4774 L 12.3576,23.4175 L 12.2434,23.3564 L 12.1178,23.2975 L 11.9854,23.2432 L 11.8452,23.1901 L 11.6958,23.138 L 11.5409,23.0905 L 11.3779,23.0464 L 11.2094,23.0034 L 11.0329,22.9638 L 10.853,22.9276 L 10.6664,22.8948 L 10.4752,22.8643 L 10.2817,22.8371 L 10.0826,22.8145 L 9.88013,22.7953 L 9.6765,22.7794 L 9.46948,22.767 L 9.26132,22.7568 L 9.05204,22.7511 L 8.84275,22.75 L 8.84275,22.75 L 8.63233,22.7511 L 8.42304,22.7568 L 8.21489,22.767 L 8.00786,22.7794 L 7.80423,22.7953 L 7.60173,22.8145 L 7.40376,22.8371 L 7.20918,22.8643 L 7.01799,22.8948 L 6.83133,22.9276 L 6.65146,22.9638 L 6.47611,23.0034 L 6.30755,23.0464 L 6.14465,23.0905 L 5.98853,23.138 L 5.8392,23.1901 L 5.70005,23.2432 L 5.56656,23.2975 L 5.44212,23.3564 L 5.32673,23.4175 L 5.22039,23.4774 L 5.1231,23.543 L 5.03486,23.6075 L 4.9568,23.672 L 4.88892,23.741 L 4.83123,23.81 L 4.78485,23.8813 L 4.74751,23.9514 L 4.72036,24.0216 L 4.70566,24.0928 L 4.7,24.1664 L 4.7,24.1664 L 4.70566,24.2376 L 4.72036,24.31 L 4.74751,24.379 L 4.78485,24.4514 L 4.83123,24.5205 L 4.88892,24.5906 L 4.9568,24.6585 L 5.03486,24.7241 L 5.1231,24.7897 L 5.22039,24.8531 L 5.32673,24.9153 L 5.44212,24.9752 L 5.56656,25.0329 L 5.70005,25.0884 L 5.8392,25.1427 L 5.98853,25.1924 L 6.14465,25.2411 L 6.30755,25.2863 L 6.47611,25.3282 L 6.65146,25.3678 L 6.83133,25.4051 L 7.01799,25.4368 L 7.20918,25.4685 L 7.40376,25.4945 L 7.60173,25.5171 L 7.80423,25.5375 L 8.00786,25.5522 L 8.21489,25.5658 L 8.42304,25.5748 L 8.63233,25.5805 L 8.84275,25.5827 L 8.84275,25.5827 L 9.05204,25.5805 L 9.26132,25.5748 L 9.46948,25.5658 L 9.6765,25.5522 L 9.88013,25.5375 L 10.0826,25.5171 L 10.2817,25.4945 L 10.4752,25.4685 L 10.6664,25.4368 L 10.853,25.4051 L 11.0329,25.3678 L 11.2094,25.3282 L 11.3779,25.2863 L 11.5409,25.2411 L 11.6958,25.1924 L 11.8452,25.1427 L 11.9854,25.0884 L 12.1178,25.0329 L 12.2434,24.9752 L 12.3576,24.9153 L 12.464,24.8531 L 12.5613,24.7897 L 12.6495,24.7241 L 12.7276,24.6585 L 12.7954,24.5906 L 12.8531,24.5205 L 12.8995,24.4514 L 12.9369,24.379 L 12.964,24.31 L 12.9798,24.2376 L 12.9855,24.1664 z"
         style="fill:#c9c9b6" />
      <path
         id="path98"
         d="M 12.9369,24.1437 L 12.9312,24.0713 L 12.9165,24.0023 L 12.8905,23.9333 L 12.8543,23.8632 L 12.8056,23.7919 L 12.7468,23.7252 L 12.6823,23.6607 L 12.6031,23.5939 L 12.516,23.5306 L 12.4199,23.4661 L 12.3135,23.4073 L 12.1993,23.3473 L 12.0759,23.2896 L 11.9459,23.2365 L 11.8033,23.1833 L 11.6551,23.1346 L 11.5001,23.0871 L 11.3395,23.0419 L 11.1721,23 L 10.9978,22.9615 L 10.8168,22.9265 L 10.6324,22.8937 L 10.4424,22.8643 L 10.2501,22.8371 L 10.0532,22.8145 L 9.85072,22.7953 L 9.64822,22.7794 L 9.44233,22.767 L 9.37332,22.7636 L 8.2624,22.7636 L 8.19339,22.767 L 7.98976,22.7794 L 7.78613,22.7953 L 7.58477,22.8145 L 7.38679,22.8371 L 7.19334,22.8643 L 7.00442,22.8937 L 6.82002,22.9265 L 6.63901,22.9615 L 6.4648,23 L 6.2985,23.0419 L 6.1356,23.0871 L 5.97948,23.1346 L 5.83241,23.1833 L 5.69213,23.2365 L 5.56204,23.2896 L 5.43759,23.3473 L 5.3222,23.4073 L 5.21813,23.4661 L 5.12197,23.5306 L 5.0326,23.5939 L 4.95567,23.6607 L 4.88892,23.7252 L 4.83123,23.7919 L 4.78371,23.8632 L 4.74638,23.9333 L 4.72036,24.0023 L 4.70566,24.0713 L 4.7,24.1437 L 4.7,24.1437 L 4.70566,24.2127 L 4.72036,24.284 L 4.74638,24.3542 L 4.78371,24.4232 L 4.83123,24.4922 L 4.88892,24.56 L 4.95567,24.6257 L 5.0326,24.6924 L 5.12197,24.7558 L 5.21813,24.8191 L 5.3222,24.8802 L 5.43759,24.9379 L 5.56204,24.9945 L 5.69213,25.051 L 5.83241,25.1031 L 5.97948,25.1517 L 6.1356,25.1981 L 6.2985,25.2433 L 6.4648,25.2841 L 6.63901,25.3237 L 6.82002,25.361 L 7.00442,25.3904 L 7.19334,25.4221 L 7.38679,25.447 L 7.58477,25.4707 L 7.78613,25.4911 L 7.98976,25.5069 L 8.19339,25.5194 L 8.40155,25.5273 L 8.60971,25.5318 L 8.81786,25.5352 L 8.81786,25.5352 L 9.02602,25.5318 L 9.23644,25.5273 L 9.44233,25.5194 L 9.64822,25.5069 L 9.85072,25.4911 L 10.0532,25.4707 L 10.2501,25.447 L 10.4424,25.4221 L 10.6324,25.3904 L 10.8168,25.361 L 10.9978,25.3237 L 11.1721,25.2841 L 11.3395,25.2433 L 11.5001,25.1981 L 11.6551,25.1517 L 11.8033,25.1031 L 11.9459,25.051 L 12.0759,24.9945 L 12.1993,24.9379 L 12.3135,24.8802 L 12.4199,24.8191 L 12.516,24.7558 L 12.6031,24.6924 L 12.6823,24.6257 L 12.7468,24.56 L 12.8056,24.4922 L 12.8543,24.4232 L 12.8905,24.3542 L 12.9165,24.284 L 12.9312,24.2127 L 12.9369,24.1437"
         style="fill:none;fill-opacity:0;stroke:#494936;stroke-width:0.001" />
      <path
         id="path100"
         d="M 4.7,24.1437 L 4.7,27.1247"
         style="fill:none;fill-opacity:0;stroke:#000000;stroke-width:0.001" />
      <path
         id="path102"
         d="M 12.9369,24.1437 L 12.9369,27.1247"
         style="fill:none;fill-opacity:0;stroke:#000000;stroke-width:0.001" />
    </g>
    <text
       xml:space="preserve"
       style="font-size:40px;font-style:normal;font-weight:normal;line-height:125%;fill:#000000;fill-opacity:1;stroke:none;stroke-width:1px;stroke-linecap:butt;stroke-linejoin:miter;stroke-opacity:1;font-family:Bitstream Vera Sans"
       x="298.12152"
       y="492.05505"
       id="text2557"
       sodipodi:linespacing="125%"><tspan
         sodipodi:role="line"
         id="tspan2559"
         x="298.12152"
         y="492.05505"
         style="font-size:12px;font-style:normal;font-variant:normal;font-weight:bold;font-stretch:normal;text-align:start;line-height:125%;writing-mode:lr-tb;text-anchor:start;font-family:Bitstream Vera Sans;-inkscape-font-specification:Bitstream Vera Sans Bold">TCP</tspan></text>
    <g
       id="g2565"
       transform="matrix(5.4010912,0,0,8.473142,42.14308,319.78093)">
      <path
         id="path2567"
         d="M 12.9855,27.1496 L 12.9798,27.0771 L 12.964,27.0059 L 12.9369,26.9346 L 12.8995,26.8645 L 12.8531,26.7943 L 12.7954,26.7253 L 12.7276,26.6574 L 12.6495,26.5907 L 12.5613,26.5251 L 12.464,26.4629 L 12.3576,26.4006 L 12.2434,26.3396 L 12.1178,26.2819 L 11.9854,26.2264 L 11.8452,26.1733 L 11.6958,26.1223 L 11.5409,26.0748 L 11.3779,26.0296 L 11.2094,25.9877 L 11.0329,25.9481 L 10.853,25.9108 L 10.6664,25.878 L 10.4752,25.8463 L 10.2817,25.8203 L 10.0826,25.7977 L 9.88013,25.7784 L 9.6765,25.7615 L 9.46948,25.7502 L 9.26132,25.74 L 9.05204,25.7332 L 8.84275,25.7332 L 8.84275,25.7332 L 8.63233,25.7332 L 8.42304,25.74 L 8.21489,25.7502 L 8.00786,25.7615 L 7.80423,25.7784 L 7.60173,25.7977 L 7.40376,25.8203 L 7.20918,25.8463 L 7.01799,25.878 L 6.83133,25.9108 L 6.65146,25.9481 L 6.47611,25.9877 L 6.30755,26.0296 L 6.14465,26.0748 L 5.98853,26.1223 L 5.8392,26.1733 L 5.70005,26.2264 L 5.56656,26.2819 L 5.44212,26.3396 L 5.32673,26.4006 L 5.22039,26.4629 L 5.1231,26.5251 L 5.03486,26.5907 L 4.9568,26.6574 L 4.88892,26.7253 L 4.83123,26.7943 L 4.78485,26.8645 L 4.74751,26.9346 L 4.72036,27.0059 L 4.70566,27.0771 L 4.7,27.1496 L 4.7,27.1496 L 4.70566,27.222 L 4.72036,27.2921 L 4.74751,27.3645 L 4.78485,27.4346 L 4.83123,27.5048 L 4.88892,27.5738 L 4.9568,27.6417 L 5.03486,27.7084 L 5.1231,27.7729 L 5.22039,27.8362 L 5.32673,27.8985 L 5.44212,27.9595 L 5.56656,28.0172 L 5.70005,28.0727 L 5.8392,28.1258 L 5.98853,28.1768 L 6.14465,28.2243 L 6.30755,28.2695 L 6.47611,28.3114 L 6.65146,28.351 L 6.83133,28.3883 L 7.01799,28.4211 L 7.20918,28.4517 L 7.40376,28.4788 L 7.60173,28.5014 L 7.80423,28.5207 L 8.00786,28.5365 L 8.21489,28.5489 L 8.42304,28.558 L 8.63233,28.5648 L 8.84275,28.5659 L 8.84275,28.5659 L 9.05204,28.5648 L 9.26132,28.558 L 9.46948,28.5489 L 9.6765,28.5365 L 9.88013,28.5207 L 10.0826,28.5014 L 10.2817,28.4788 L 10.4752,28.4517 L 10.6664,28.4211 L 10.853,28.3883 L 11.0329,28.351 L 11.2094,28.3114 L 11.3779,28.2695 L 11.5409,28.2243 L 11.6958,28.1768 L 11.8452,28.1258 L 11.9854,28.0727 L 12.1178,28.0172 L 12.2434,27.9595 L 12.3576,27.8985 L 12.464,27.8362 L 12.5613,27.7729 L 12.6495,27.7084 L 12.7276,27.6417 L 12.7954,27.5738 L 12.8531,27.5048 L 12.8995,27.4346 L 12.9369,27.3645 L 12.964,27.2921 L 12.9798,27.222 L 12.9855,27.1496 z"
         style="fill:#a5a585" />
      <path
         id="path2569"
         d="M 12.9369,27.1269 L 12.9312,27.0545 L 12.9165,26.9855 L 12.8905,26.9154 L 12.8543,26.8464 L 12.8056,26.7762 L 12.7468,26.7095 L 12.6823,26.6416 L 12.6031,26.5783 L 12.516,26.5138 L 12.4199,26.4504 L 12.3135,26.3905 L 12.1993,26.3305 L 12.0759,26.2739 L 11.9459,26.2174 L 11.8033,26.1665 L 11.6551,26.1167 L 11.5001,26.0692 L 11.3395,26.0251 L 11.1721,25.9843 L 10.9978,25.9447 L 10.8168,25.9097 L 10.6324,25.8769 L 10.4424,25.8463 L 10.2501,25.8203 L 10.0532,25.7977 L 9.85072,25.7796 L 9.64822,25.7615 L 9.44233,25.7513 L 9.23644,25.7422 L 9.02602,25.7366 L 8.81786,25.7332 L 8.81786,25.7332 L 8.60971,25.7366 L 8.40155,25.7422 L 8.19339,25.7513 L 7.98976,25.7615 L 7.78613,25.7796 L 7.58477,25.7977 L 7.38679,25.8203 L 7.19334,25.8463 L 7.00442,25.8769 L 6.82002,25.9097 L 6.63901,25.9447 L 6.4648,25.9843 L 6.2985,26.0251 L 6.1356,26.0692 L 5.97948,26.1167 L 5.83241,26.1665 L 5.69213,26.2174 L 5.56204,26.2739 L 5.43759,26.3305 L 5.3222,26.3905 L 5.21813,26.4504 L 5.12197,26.5138 L 5.0326,26.5783 L 4.95567,26.6416 L 4.88892,26.7095 L 4.83123,26.7762 L 4.78371,26.8464 L 4.74638,26.9154 L 4.72036,26.9855 L 4.70566,27.0545 L 4.7,27.1269 L 4.7,27.1269 L 4.70566,27.1971 L 4.72036,27.2661 L 4.74638,27.3373 L 4.78371,27.4064 L 4.83123,27.4754 L 4.88892,27.5432 L 4.95567,27.61 L 5.0326,27.6745 L 5.12197,27.7378 L 5.21813,27.8023 L 5.3222,27.8634 L 5.43759,27.9211 L 5.56204,27.9788 L 5.69213,28.0342 L 5.83241,28.0863 L 5.97948,28.136 L 6.1356,28.1824 L 6.2985,28.2277 L 6.4648,28.2684 L 6.63901,28.308 L 6.82002,28.3442 L 7.00442,28.3759 L 7.19334,28.4053 L 7.38679,28.4313 L 7.58477,28.4539 L 7.78613,28.4731 L 7.98976,28.4901 L 8.19339,28.5014 L 8.40155,28.5105 L 8.60971,28.5161 L 8.81786,28.5184 L 8.81786,28.5184 L 9.02602,28.5161 L 9.23644,28.5105 L 9.44233,28.5014 L 9.64822,28.4901 L 9.85072,28.4731 L 10.0532,28.4539 L 10.2501,28.4313 L 10.4424,28.4053 L 10.6324,28.3759 L 10.8168,28.3442 L 10.9978,28.308 L 11.1721,28.2684 L 11.3395,28.2277 L 11.5001,28.1824 L 11.6551,28.136 L 11.8033,28.0863 L 11.9459,28.0342 L 12.0759,27.9788 L 12.1993,27.9211 L 12.3135,27.8634 L 12.4199,27.8023 L 12.516,27.7378 L 12.6031,27.6745 L 12.6823,27.61 L 12.7468,27.5432 L 12.8056,27.4754 L 12.8543,27.4064 L 12.8905,27.3373 L 12.9165,27.2661 L 12.9312,27.1971 L 12.9369,27.1269"
         style="fill:none;fill-opacity:0;stroke:#494936;stroke-width:0.001" />
      <path
         id="path2571"
         d="M 4.7,24.1913 L 4.7,27.1744 L 12.9369,27.1744 L 12.9369,24.1913 L 4.7,24.1913 z"
         style="fill:#a5a585" />
      <path
         id="path2573"
         d="M 12.9855,24.1664 L 12.9798,24.0928 L 12.964,24.0216 L 12.9369,23.9514 L 12.8995,23.8813 L 12.8531,23.81 L 12.7954,23.741 L 12.7276,23.672 L 12.6495,23.6075 L 12.5613,23.543 L 12.464,23.4774 L 12.3576,23.4175 L 12.2434,23.3564 L 12.1178,23.2975 L 11.9854,23.2432 L 11.8452,23.1901 L 11.6958,23.138 L 11.5409,23.0905 L 11.3779,23.0464 L 11.2094,23.0034 L 11.0329,22.9638 L 10.853,22.9276 L 10.6664,22.8948 L 10.4752,22.8643 L 10.2817,22.8371 L 10.0826,22.8145 L 9.88013,22.7953 L 9.6765,22.7794 L 9.46948,22.767 L 9.26132,22.7568 L 9.05204,22.7511 L 8.84275,22.75 L 8.84275,22.75 L 8.63233,22.7511 L 8.42304,22.7568 L 8.21489,22.767 L 8.00786,22.7794 L 7.80423,22.7953 L 7.60173,22.8145 L 7.40376,22.8371 L 7.20918,22.8643 L 7.01799,22.8948 L 6.83133,22.9276 L 6.65146,22.9638 L 6.47611,23.0034 L 6.30755,23.0464 L 6.14465,23.0905 L 5.98853,23.138 L 5.8392,23.1901 L 5.70005,23.2432 L 5.56656,23.2975 L 5.44212,23.3564 L 5.32673,23.4175 L 5.22039,23.4774 L 5.1231,23.543 L 5.03486,23.6075 L 4.9568,23.672 L 4.88892,23.741 L 4.83123,23.81 L 4.78485,23.8813 L 4.74751,23.9514 L 4.72036,24.0216 L 4.70566,24.0928 L 4.7,24.1664 L 4.7,24.1664 L 4.70566,24.2376 L 4.72036,24.31 L 4.74751,24.379 L 4.78485,24.4514 L 4.83123,24.5205 L 4.88892,24.5906 L 4.9568,24.6585 L 5.03486,24.7241 L 5.1231,24.7897 L 5.22039,24.8531 L 5.32673,24.9153 L 5.44212,24.9752 L 5.56656,25.0329 L 5.70005,25.0884 L 5.8392,25.1427 L 5.98853,25.1924 L 6.14465,25.2411 L 6.30755,25.2863 L 6.47611,25.3282 L 6.65146,25.3678 L 6.83133,25.4051 L 7.01799,25.4368 L 7.20918,25.4685 L 7.40376,25.4945 L 7.60173,25.5171 L 7.80423,25.5375 L 8.00786,25.5522 L 8.21489,25.5658 L 8.42304,25.5748 L 8.63233,25.5805 L 8.84275,25.5827 L 8.84275,25.5827 L 9.05204,25.5805 L 9.26132,25.5748 L 9.46948,25.5658 L 9.6765,25.5522 L 9.88013,25.5375 L 10.0826,25.5171 L 10.2817,25.4945 L 10.4752,25.4685 L 10.6664,25.4368 L 10.853,25.4051 L 11.0329,25.3678 L 11.2094,25.3282 L 11.3779,25.2863 L 11.5409,25.2411 L 11.6958,25.1924 L 11.8452,25.1427 L 11.9854,25.0884 L 12.1178,25.0329 L 12.2434,24.9752 L 12.3576,24.9153 L 12.464,24.8531 L 12.5613,24.7897 L 12.6495,24.7241 L 12.7276,24.6585 L 12.7954,24.5906 L 12.8531,24.5205 L 12.8995,24.4514 L 12.9369,24.379 L 12.964,24.31 L 12.9798,24.2376 L 12.9855,24.1664 z"
         style="fill:#c9c9b6" />
      <path
         id="path2575"
         d="M 12.9369,24.1437 L 12.9312,24.0713 L 12.9165,24.0023 L 12.8905,23.9333 L 12.8543,23.8632 L 12.8056,23.7919 L 12.7468,23.7252 L 12.6823,23.6607 L 12.6031,23.5939 L 12.516,23.5306 L 12.4199,23.4661 L 12.3135,23.4073 L 12.1993,23.3473 L 12.0759,23.2896 L 11.9459,23.2365 L 11.8033,23.1833 L 11.6551,23.1346 L 11.5001,23.0871 L 11.3395,23.0419 L 11.1721,23 L 10.9978,22.9615 L 10.8168,22.9265 L 10.6324,22.8937 L 10.4424,22.8643 L 10.2501,22.8371 L 10.0532,22.8145 L 9.85072,22.7953 L 9.64822,22.7794 L 9.44233,22.767 L 9.37332,22.7636 L 8.2624,22.7636 L 8.19339,22.767 L 7.98976,22.7794 L 7.78613,22.7953 L 7.58477,22.8145 L 7.38679,22.8371 L 7.19334,22.8643 L 7.00442,22.8937 L 6.82002,22.9265 L 6.63901,22.9615 L 6.4648,23 L 6.2985,23.0419 L 6.1356,23.0871 L 5.97948,23.1346 L 5.83241,23.1833 L 5.69213,23.2365 L 5.56204,23.2896 L 5.43759,23.3473 L 5.3222,23.4073 L 5.21813,23.4661 L 5.12197,23.5306 L 5.0326,23.5939 L 4.95567,23.6607 L 4.88892,23.7252 L 4.83123,23.7919 L 4.78371,23.8632 L 4.74638,23.9333 L 4.72036,24.0023 L 4.70566,24.0713 L 4.7,24.1437 L 4.7,24.1437 L 4.70566,24.2127 L 4.72036,24.284 L 4.74638,24.3542 L 4.78371,24.4232 L 4.83123,24.4922 L 4.88892,24.56 L 4.95567,24.6257 L 5.0326,24.6924 L 5.12197,24.7558 L 5.21813,24.8191 L 5.3222,24.8802 L 5.43759,24.9379 L 5.56204,24.9945 L 5.69213,25.051 L 5.83241,25.1031 L 5.97948,25.1517 L 6.1356,25.1981 L 6.2985,25.2433 L 6.4648,25.2841 L 6.63901,25.3237 L 6.82002,25.361 L 7.00442,25.3904 L 7.19334,25.4221 L 7.38679,25.447 L 7.58477,25.4707 L 7.78613,25.4911 L 7.98976,25.5069 L 8.19339,25.5194 L 8.40155,25.5273 L 8.60971,25.5318 L 8.81786,25.5352 L 8.81786,25.5352 L 9.02602,25.5318 L 9.23644,25.5273 L 9.44233,25.5194 L 9.64822,25.5069 L 9.85072,25.4911 L 10.0532,25.4707 L 10.2501,25.447 L 10.4424,25.4221 L 10.6324,25.3904 L 10.8168,25.361 L 10.9978,25.3237 L 11.1721,25.2841 L 11.3395,25.2433 L 11.5001,25.1981 L 11.6551,25.1517 L 11.8033,25.1031 L 11.9459,25.051 L 12.0759,24.9945 L 12.1993,24.9379 L 12.3135,24.8802 L 12.4199,24.8191 L 12.516,24.7558 L 12.6031,24.6924 L 12.6823,24.6257 L 12.7468,24.56 L 12.8056,24.4922 L 12.8543,24.4232 L 12.8905,24.3542 L 12.9165,24.284 L 12.9312,24.2127 L 12.9369,24.1437"
         style="fill:none;fill-opacity:0;stroke:#494936;stroke-width:0.001" />
      <path
         id="path2577"
         d="M 4.7,24.1437 L 4.7,27.1247"
         style="fill:none;fill-opacity:0;stroke:#000000;stroke-width:0.001" />
      <path
         id="path2579"
         d="M 12.9369,24.1437 L 12.9369,27.1247"
         style="fill:none;fill-opacity:0;stroke:#000000;stroke-width:0.001" />
    </g>
  </g>
</svg>
